<mxfile host="app.diagrams.net" modified="2023-08-18T14:42:46.229Z" agent="Mozilla/5.0 (Windows NT 10.0; Win64; x64) AppleWebKit/537.36 (KHTML, like Gecko) Chrome/115.0.0.0 Safari/537.36 OPR/101.0.0.0" etag="JBaZnSOgwbfPe0r-2fXN" version="21.6.8" type="github" pages="5">
  <diagram name="Flow Chart" id="ckaKuw8LrtxWBcim2sx2">
    <mxGraphModel dx="734" dy="490" grid="1" gridSize="10" guides="1" tooltips="1" connect="1" arrows="1" fold="1" page="1" pageScale="1" pageWidth="850" pageHeight="2000" math="0" shadow="0">
      <root>
        <mxCell id="0" />
        <mxCell id="1" parent="0" />
        <mxCell id="eUnGqf3GW7OmagP6Ht3n-60" style="edgeStyle=orthogonalEdgeStyle;rounded=0;orthogonalLoop=1;jettySize=auto;html=1;exitX=0.5;exitY=0.5;exitDx=0;exitDy=15;exitPerimeter=0;entryX=0.5;entryY=0;entryDx=0;entryDy=0;" parent="1" source="eUnGqf3GW7OmagP6Ht3n-58" target="eUnGqf3GW7OmagP6Ht3n-59" edge="1">
          <mxGeometry relative="1" as="geometry" />
        </mxCell>
        <mxCell id="eUnGqf3GW7OmagP6Ht3n-58" value="START" style="html=1;dashed=0;whiteSpace=wrap;shape=mxgraph.dfd.start" parent="1" vertex="1">
          <mxGeometry x="385" y="20" width="80" height="30" as="geometry" />
        </mxCell>
        <mxCell id="eUnGqf3GW7OmagP6Ht3n-62" style="edgeStyle=orthogonalEdgeStyle;rounded=0;orthogonalLoop=1;jettySize=auto;html=1;exitX=0.5;exitY=1;exitDx=0;exitDy=0;entryX=0.5;entryY=0;entryDx=0;entryDy=0;" parent="1" source="eUnGqf3GW7OmagP6Ht3n-59" target="eUnGqf3GW7OmagP6Ht3n-61" edge="1">
          <mxGeometry relative="1" as="geometry" />
        </mxCell>
        <mxCell id="eUnGqf3GW7OmagP6Ht3n-59" value="REGISTRATION" style="html=1;dashed=0;whiteSpace=wrap;" parent="1" vertex="1">
          <mxGeometry x="375" y="70" width="100" height="50" as="geometry" />
        </mxCell>
        <mxCell id="eUnGqf3GW7OmagP6Ht3n-63" style="edgeStyle=orthogonalEdgeStyle;rounded=0;orthogonalLoop=1;jettySize=auto;html=1;exitX=1;exitY=0.5;exitDx=0;exitDy=0;entryX=1;entryY=0.5;entryDx=0;entryDy=0;" parent="1" source="eUnGqf3GW7OmagP6Ht3n-61" target="eUnGqf3GW7OmagP6Ht3n-59" edge="1">
          <mxGeometry relative="1" as="geometry">
            <Array as="points">
              <mxPoint x="500" y="180" />
              <mxPoint x="500" y="95" />
            </Array>
          </mxGeometry>
        </mxCell>
        <mxCell id="eUnGqf3GW7OmagP6Ht3n-68" style="edgeStyle=orthogonalEdgeStyle;rounded=0;orthogonalLoop=1;jettySize=auto;html=1;exitX=0.5;exitY=1;exitDx=0;exitDy=0;entryX=0.5;entryY=0;entryDx=0;entryDy=0;" parent="1" source="eUnGqf3GW7OmagP6Ht3n-61" target="eUnGqf3GW7OmagP6Ht3n-67" edge="1">
          <mxGeometry relative="1" as="geometry" />
        </mxCell>
        <mxCell id="eUnGqf3GW7OmagP6Ht3n-61" value="IS VALID?" style="rhombus;whiteSpace=wrap;html=1;" parent="1" vertex="1">
          <mxGeometry x="385" y="140" width="80" height="80" as="geometry" />
        </mxCell>
        <mxCell id="eUnGqf3GW7OmagP6Ht3n-64" value="NO" style="text;html=1;align=center;verticalAlign=middle;resizable=0;points=[];autosize=1;strokeColor=none;fillColor=none;" parent="1" vertex="1">
          <mxGeometry x="450" y="148" width="40" height="30" as="geometry" />
        </mxCell>
        <mxCell id="eUnGqf3GW7OmagP6Ht3n-65" value="YES" style="text;html=1;align=center;verticalAlign=middle;resizable=0;points=[];autosize=1;strokeColor=none;fillColor=none;" parent="1" vertex="1">
          <mxGeometry x="425" y="210" width="50" height="30" as="geometry" />
        </mxCell>
        <mxCell id="eUnGqf3GW7OmagP6Ht3n-70" style="edgeStyle=orthogonalEdgeStyle;rounded=0;orthogonalLoop=1;jettySize=auto;html=1;exitX=0.5;exitY=1;exitDx=0;exitDy=0;entryX=0.5;entryY=0;entryDx=0;entryDy=0;" parent="1" source="eUnGqf3GW7OmagP6Ht3n-67" target="eUnGqf3GW7OmagP6Ht3n-69" edge="1">
          <mxGeometry relative="1" as="geometry" />
        </mxCell>
        <mxCell id="eUnGqf3GW7OmagP6Ht3n-67" value="LOGIN" style="html=1;dashed=0;whiteSpace=wrap;" parent="1" vertex="1">
          <mxGeometry x="375" y="240" width="100" height="50" as="geometry" />
        </mxCell>
        <mxCell id="eUnGqf3GW7OmagP6Ht3n-71" style="edgeStyle=orthogonalEdgeStyle;rounded=0;orthogonalLoop=1;jettySize=auto;html=1;exitX=1;exitY=0.5;exitDx=0;exitDy=0;entryX=1;entryY=0.5;entryDx=0;entryDy=0;" parent="1" source="eUnGqf3GW7OmagP6Ht3n-69" target="eUnGqf3GW7OmagP6Ht3n-67" edge="1">
          <mxGeometry relative="1" as="geometry">
            <Array as="points">
              <mxPoint x="500" y="350" />
              <mxPoint x="500" y="265" />
            </Array>
          </mxGeometry>
        </mxCell>
        <mxCell id="eUnGqf3GW7OmagP6Ht3n-73" style="edgeStyle=orthogonalEdgeStyle;rounded=0;orthogonalLoop=1;jettySize=auto;html=1;exitX=0.5;exitY=1;exitDx=0;exitDy=0;" parent="1" source="eUnGqf3GW7OmagP6Ht3n-69" target="eUnGqf3GW7OmagP6Ht3n-72" edge="1">
          <mxGeometry relative="1" as="geometry" />
        </mxCell>
        <mxCell id="eUnGqf3GW7OmagP6Ht3n-69" value="IS VALID?" style="rhombus;whiteSpace=wrap;html=1;" parent="1" vertex="1">
          <mxGeometry x="385" y="310" width="80" height="80" as="geometry" />
        </mxCell>
        <mxCell id="eUnGqf3GW7OmagP6Ht3n-75" style="edgeStyle=orthogonalEdgeStyle;rounded=0;orthogonalLoop=1;jettySize=auto;html=1;exitX=0;exitY=0.5;exitDx=0;exitDy=0;entryX=1;entryY=0.5;entryDx=0;entryDy=0;" parent="1" source="eUnGqf3GW7OmagP6Ht3n-72" target="eUnGqf3GW7OmagP6Ht3n-74" edge="1">
          <mxGeometry relative="1" as="geometry" />
        </mxCell>
        <mxCell id="eUnGqf3GW7OmagP6Ht3n-84" value="" style="edgeStyle=orthogonalEdgeStyle;rounded=0;orthogonalLoop=1;jettySize=auto;html=1;" parent="1" source="eUnGqf3GW7OmagP6Ht3n-72" target="eUnGqf3GW7OmagP6Ht3n-83" edge="1">
          <mxGeometry relative="1" as="geometry" />
        </mxCell>
        <mxCell id="eUnGqf3GW7OmagP6Ht3n-86" value="" style="edgeStyle=orthogonalEdgeStyle;rounded=0;orthogonalLoop=1;jettySize=auto;html=1;" parent="1" source="eUnGqf3GW7OmagP6Ht3n-72" target="eUnGqf3GW7OmagP6Ht3n-85" edge="1">
          <mxGeometry relative="1" as="geometry" />
        </mxCell>
        <mxCell id="eUnGqf3GW7OmagP6Ht3n-72" value="IS USER?" style="rhombus;whiteSpace=wrap;html=1;" parent="1" vertex="1">
          <mxGeometry x="385" y="410" width="80" height="80" as="geometry" />
        </mxCell>
        <mxCell id="eUnGqf3GW7OmagP6Ht3n-81" value="" style="edgeStyle=orthogonalEdgeStyle;rounded=0;orthogonalLoop=1;jettySize=auto;html=1;" parent="1" source="eUnGqf3GW7OmagP6Ht3n-74" target="eUnGqf3GW7OmagP6Ht3n-80" edge="1">
          <mxGeometry relative="1" as="geometry" />
        </mxCell>
        <mxCell id="eUnGqf3GW7OmagP6Ht3n-74" value="IS ADMIN?" style="rhombus;whiteSpace=wrap;html=1;" parent="1" vertex="1">
          <mxGeometry x="100" y="410" width="80" height="80" as="geometry" />
        </mxCell>
        <mxCell id="eUnGqf3GW7OmagP6Ht3n-77" value="NO" style="text;html=1;align=center;verticalAlign=middle;resizable=0;points=[];autosize=1;strokeColor=none;fillColor=none;" parent="1" vertex="1">
          <mxGeometry x="450" y="318" width="40" height="30" as="geometry" />
        </mxCell>
        <mxCell id="eUnGqf3GW7OmagP6Ht3n-78" value="YES" style="text;html=1;align=center;verticalAlign=middle;resizable=0;points=[];autosize=1;strokeColor=none;fillColor=none;" parent="1" vertex="1">
          <mxGeometry x="425" y="390" width="50" height="30" as="geometry" />
        </mxCell>
        <mxCell id="eUnGqf3GW7OmagP6Ht3n-79" value="NO" style="text;html=1;align=center;verticalAlign=middle;resizable=0;points=[];autosize=1;strokeColor=none;fillColor=none;" parent="1" vertex="1">
          <mxGeometry x="350" y="430" width="40" height="30" as="geometry" />
        </mxCell>
        <mxCell id="5z-L5FT6G-_aWtpZadQo-2" value="" style="edgeStyle=orthogonalEdgeStyle;rounded=0;orthogonalLoop=1;jettySize=auto;html=1;" parent="1" source="eUnGqf3GW7OmagP6Ht3n-80" edge="1">
          <mxGeometry relative="1" as="geometry">
            <mxPoint x="140" y="670.0000000000002" as="targetPoint" />
          </mxGeometry>
        </mxCell>
        <mxCell id="5z-L5FT6G-_aWtpZadQo-12" style="edgeStyle=orthogonalEdgeStyle;rounded=0;orthogonalLoop=1;jettySize=auto;html=1;exitX=0;exitY=0.5;exitDx=0;exitDy=0;entryX=0;entryY=0.5;entryDx=0;entryDy=0;" parent="1" source="eUnGqf3GW7OmagP6Ht3n-80" target="ns_d-aMQriX51YMULZ0u-33" edge="1">
          <mxGeometry relative="1" as="geometry" />
        </mxCell>
        <mxCell id="eUnGqf3GW7OmagP6Ht3n-80" value="ADMIN DASHBOARD" style="whiteSpace=wrap;html=1;" parent="1" vertex="1">
          <mxGeometry x="80" y="580" width="120" height="60" as="geometry" />
        </mxCell>
        <mxCell id="eUnGqf3GW7OmagP6Ht3n-82" value="YES" style="text;html=1;align=center;verticalAlign=middle;resizable=0;points=[];autosize=1;strokeColor=none;fillColor=none;" parent="1" vertex="1">
          <mxGeometry x="130" y="478" width="50" height="30" as="geometry" />
        </mxCell>
        <mxCell id="ns_d-aMQriX51YMULZ0u-35" style="edgeStyle=orthogonalEdgeStyle;rounded=0;orthogonalLoop=1;jettySize=auto;html=1;exitX=1;exitY=0.5;exitDx=0;exitDy=0;entryX=1;entryY=0.5;entryDx=0;entryDy=0;" parent="1" source="eUnGqf3GW7OmagP6Ht3n-83" target="ns_d-aMQriX51YMULZ0u-33" edge="1">
          <mxGeometry relative="1" as="geometry" />
        </mxCell>
        <mxCell id="BJIkiRpMkKDZ_c4Hg6pY-5" style="edgeStyle=orthogonalEdgeStyle;rounded=0;orthogonalLoop=1;jettySize=auto;html=1;exitX=0.5;exitY=1;exitDx=0;exitDy=0;entryX=0.5;entryY=0;entryDx=0;entryDy=0;" parent="1" source="eUnGqf3GW7OmagP6Ht3n-83" target="BJIkiRpMkKDZ_c4Hg6pY-4" edge="1">
          <mxGeometry relative="1" as="geometry" />
        </mxCell>
        <mxCell id="BJIkiRpMkKDZ_c4Hg6pY-7" style="edgeStyle=orthogonalEdgeStyle;rounded=0;orthogonalLoop=1;jettySize=auto;html=1;exitX=1;exitY=0.5;exitDx=0;exitDy=0;entryX=1;entryY=0.5;entryDx=0;entryDy=0;" parent="1" source="eUnGqf3GW7OmagP6Ht3n-83" target="ns_d-aMQriX51YMULZ0u-43" edge="1">
          <mxGeometry relative="1" as="geometry" />
        </mxCell>
        <mxCell id="BJIkiRpMkKDZ_c4Hg6pY-8" style="edgeStyle=orthogonalEdgeStyle;rounded=0;orthogonalLoop=1;jettySize=auto;html=1;exitX=1;exitY=0.5;exitDx=0;exitDy=0;entryX=1;entryY=0.5;entryDx=0;entryDy=0;" parent="1" source="eUnGqf3GW7OmagP6Ht3n-83" target="ns_d-aMQriX51YMULZ0u-45" edge="1">
          <mxGeometry relative="1" as="geometry" />
        </mxCell>
        <mxCell id="BJIkiRpMkKDZ_c4Hg6pY-9" style="edgeStyle=orthogonalEdgeStyle;rounded=0;orthogonalLoop=1;jettySize=auto;html=1;exitX=1;exitY=0.5;exitDx=0;exitDy=0;entryX=1;entryY=0.5;entryDx=0;entryDy=0;" parent="1" source="eUnGqf3GW7OmagP6Ht3n-83" target="ns_d-aMQriX51YMULZ0u-47" edge="1">
          <mxGeometry relative="1" as="geometry" />
        </mxCell>
        <mxCell id="eUnGqf3GW7OmagP6Ht3n-83" value="GIFT STOCKIST&lt;br&gt;DASHBOARD" style="whiteSpace=wrap;html=1;" parent="1" vertex="1">
          <mxGeometry x="660" y="580" width="120" height="60" as="geometry" />
        </mxCell>
        <mxCell id="eUnGqf3GW7OmagP6Ht3n-90" value="" style="edgeStyle=orthogonalEdgeStyle;rounded=0;orthogonalLoop=1;jettySize=auto;html=1;" parent="1" source="eUnGqf3GW7OmagP6Ht3n-85" target="eUnGqf3GW7OmagP6Ht3n-89" edge="1">
          <mxGeometry relative="1" as="geometry" />
        </mxCell>
        <mxCell id="BJIkiRpMkKDZ_c4Hg6pY-2" style="edgeStyle=orthogonalEdgeStyle;rounded=0;orthogonalLoop=1;jettySize=auto;html=1;exitX=0;exitY=0.5;exitDx=0;exitDy=0;entryX=0;entryY=0.25;entryDx=0;entryDy=0;" parent="1" source="eUnGqf3GW7OmagP6Ht3n-85" target="ns_d-aMQriX51YMULZ0u-33" edge="1">
          <mxGeometry relative="1" as="geometry">
            <Array as="points">
              <mxPoint x="340" y="610" />
              <mxPoint x="340" y="1655" />
            </Array>
          </mxGeometry>
        </mxCell>
        <mxCell id="eUnGqf3GW7OmagP6Ht3n-85" value="USER DASHBOARD" style="whiteSpace=wrap;html=1;" parent="1" vertex="1">
          <mxGeometry x="365" y="580" width="120" height="60" as="geometry" />
        </mxCell>
        <mxCell id="eUnGqf3GW7OmagP6Ht3n-87" value="YES" style="text;html=1;align=center;verticalAlign=middle;resizable=0;points=[];autosize=1;strokeColor=none;fillColor=none;" parent="1" vertex="1">
          <mxGeometry x="415" y="478" width="50" height="30" as="geometry" />
        </mxCell>
        <mxCell id="eUnGqf3GW7OmagP6Ht3n-88" value="NO" style="text;html=1;align=center;verticalAlign=middle;resizable=0;points=[];autosize=1;strokeColor=none;fillColor=none;" parent="1" vertex="1">
          <mxGeometry x="450" y="428" width="40" height="30" as="geometry" />
        </mxCell>
        <mxCell id="ns_d-aMQriX51YMULZ0u-2" value="" style="edgeStyle=orthogonalEdgeStyle;rounded=0;orthogonalLoop=1;jettySize=auto;html=1;" parent="1" source="eUnGqf3GW7OmagP6Ht3n-89" target="ns_d-aMQriX51YMULZ0u-1" edge="1">
          <mxGeometry relative="1" as="geometry" />
        </mxCell>
        <mxCell id="eUnGqf3GW7OmagP6Ht3n-89" value="SEARCH/SEE&lt;br&gt;CATEGORIES" style="whiteSpace=wrap;html=1;" parent="1" vertex="1">
          <mxGeometry x="365" y="670" width="120" height="60" as="geometry" />
        </mxCell>
        <mxCell id="ns_d-aMQriX51YMULZ0u-4" value="" style="edgeStyle=orthogonalEdgeStyle;rounded=0;orthogonalLoop=1;jettySize=auto;html=1;" parent="1" source="ns_d-aMQriX51YMULZ0u-1" target="ns_d-aMQriX51YMULZ0u-3" edge="1">
          <mxGeometry relative="1" as="geometry" />
        </mxCell>
        <mxCell id="ns_d-aMQriX51YMULZ0u-1" value="SEARCH/SEE&lt;br&gt;PRODUCTS" style="whiteSpace=wrap;html=1;" parent="1" vertex="1">
          <mxGeometry x="365" y="760" width="120" height="60" as="geometry" />
        </mxCell>
        <mxCell id="ns_d-aMQriX51YMULZ0u-6" value="" style="edgeStyle=orthogonalEdgeStyle;rounded=0;orthogonalLoop=1;jettySize=auto;html=1;" parent="1" source="ns_d-aMQriX51YMULZ0u-3" target="ns_d-aMQriX51YMULZ0u-5" edge="1">
          <mxGeometry relative="1" as="geometry" />
        </mxCell>
        <mxCell id="ns_d-aMQriX51YMULZ0u-13" value="" style="edgeStyle=orthogonalEdgeStyle;rounded=0;orthogonalLoop=1;jettySize=auto;html=1;" parent="1" source="ns_d-aMQriX51YMULZ0u-3" target="ns_d-aMQriX51YMULZ0u-12" edge="1">
          <mxGeometry relative="1" as="geometry" />
        </mxCell>
        <mxCell id="ns_d-aMQriX51YMULZ0u-3" value="SELECT&lt;br&gt;PRODUCTS" style="whiteSpace=wrap;html=1;" parent="1" vertex="1">
          <mxGeometry x="365" y="850" width="120" height="60" as="geometry" />
        </mxCell>
        <mxCell id="ns_d-aMQriX51YMULZ0u-8" value="" style="edgeStyle=orthogonalEdgeStyle;rounded=0;orthogonalLoop=1;jettySize=auto;html=1;" parent="1" source="ns_d-aMQriX51YMULZ0u-5" target="ns_d-aMQriX51YMULZ0u-7" edge="1">
          <mxGeometry relative="1" as="geometry" />
        </mxCell>
        <mxCell id="ns_d-aMQriX51YMULZ0u-5" value="ADJUST QUANTITY" style="whiteSpace=wrap;html=1;" parent="1" vertex="1">
          <mxGeometry x="365" y="940" width="120" height="60" as="geometry" />
        </mxCell>
        <mxCell id="ns_d-aMQriX51YMULZ0u-9" style="edgeStyle=orthogonalEdgeStyle;rounded=0;orthogonalLoop=1;jettySize=auto;html=1;exitX=1;exitY=0.5;exitDx=0;exitDy=0;entryX=1;entryY=0.5;entryDx=0;entryDy=0;jumpStyle=arc;" parent="1" source="ns_d-aMQriX51YMULZ0u-7" target="ns_d-aMQriX51YMULZ0u-5" edge="1">
          <mxGeometry relative="1" as="geometry" />
        </mxCell>
        <mxCell id="ns_d-aMQriX51YMULZ0u-11" value="" style="edgeStyle=orthogonalEdgeStyle;rounded=0;orthogonalLoop=1;jettySize=auto;html=1;" parent="1" source="ns_d-aMQriX51YMULZ0u-7" target="ns_d-aMQriX51YMULZ0u-10" edge="1">
          <mxGeometry relative="1" as="geometry" />
        </mxCell>
        <mxCell id="ns_d-aMQriX51YMULZ0u-17" value="" style="edgeStyle=orthogonalEdgeStyle;rounded=0;orthogonalLoop=1;jettySize=auto;html=1;" parent="1" source="ns_d-aMQriX51YMULZ0u-7" target="ns_d-aMQriX51YMULZ0u-16" edge="1">
          <mxGeometry relative="1" as="geometry" />
        </mxCell>
        <mxCell id="ns_d-aMQriX51YMULZ0u-7" value="ADD TO CART" style="whiteSpace=wrap;html=1;" parent="1" vertex="1">
          <mxGeometry x="365" y="1030" width="120" height="60" as="geometry" />
        </mxCell>
        <mxCell id="ns_d-aMQriX51YMULZ0u-10" value="REMOVE FROM CART" style="whiteSpace=wrap;html=1;" parent="1" vertex="1">
          <mxGeometry x="210" y="1030" width="120" height="60" as="geometry" />
        </mxCell>
        <mxCell id="ns_d-aMQriX51YMULZ0u-12" value="ADD TO WISHLIST" style="whiteSpace=wrap;html=1;" parent="1" vertex="1">
          <mxGeometry x="520" y="850" width="120" height="60" as="geometry" />
        </mxCell>
        <mxCell id="ns_d-aMQriX51YMULZ0u-19" value="" style="edgeStyle=orthogonalEdgeStyle;rounded=0;orthogonalLoop=1;jettySize=auto;html=1;" parent="1" source="ns_d-aMQriX51YMULZ0u-16" target="ns_d-aMQriX51YMULZ0u-18" edge="1">
          <mxGeometry relative="1" as="geometry" />
        </mxCell>
        <mxCell id="ns_d-aMQriX51YMULZ0u-16" value="SELECT PAYMENT METHOD" style="whiteSpace=wrap;html=1;" parent="1" vertex="1">
          <mxGeometry x="365" y="1120" width="120" height="60" as="geometry" />
        </mxCell>
        <mxCell id="ns_d-aMQriX51YMULZ0u-21" value="" style="edgeStyle=orthogonalEdgeStyle;rounded=0;orthogonalLoop=1;jettySize=auto;html=1;" parent="1" source="ns_d-aMQriX51YMULZ0u-18" target="ns_d-aMQriX51YMULZ0u-20" edge="1">
          <mxGeometry relative="1" as="geometry" />
        </mxCell>
        <mxCell id="ns_d-aMQriX51YMULZ0u-18" value="MAKE PAYMENT" style="whiteSpace=wrap;html=1;" parent="1" vertex="1">
          <mxGeometry x="365" y="1210" width="120" height="60" as="geometry" />
        </mxCell>
        <mxCell id="ns_d-aMQriX51YMULZ0u-23" value="" style="edgeStyle=orthogonalEdgeStyle;rounded=0;orthogonalLoop=1;jettySize=auto;html=1;" parent="1" source="ns_d-aMQriX51YMULZ0u-20" target="ns_d-aMQriX51YMULZ0u-22" edge="1">
          <mxGeometry relative="1" as="geometry" />
        </mxCell>
        <mxCell id="ns_d-aMQriX51YMULZ0u-29" value="" style="edgeStyle=orthogonalEdgeStyle;rounded=0;orthogonalLoop=1;jettySize=auto;html=1;" parent="1" source="ns_d-aMQriX51YMULZ0u-20" target="ns_d-aMQriX51YMULZ0u-28" edge="1">
          <mxGeometry relative="1" as="geometry" />
        </mxCell>
        <mxCell id="ns_d-aMQriX51YMULZ0u-20" value="PLACE ORDER" style="whiteSpace=wrap;html=1;" parent="1" vertex="1">
          <mxGeometry x="365" y="1300" width="120" height="60" as="geometry" />
        </mxCell>
        <mxCell id="ns_d-aMQriX51YMULZ0u-22" value="CANCEL ORDER" style="whiteSpace=wrap;html=1;" parent="1" vertex="1">
          <mxGeometry x="520" y="1300" width="120" height="60" as="geometry" />
        </mxCell>
        <mxCell id="ns_d-aMQriX51YMULZ0u-32" style="edgeStyle=orthogonalEdgeStyle;rounded=0;orthogonalLoop=1;jettySize=auto;html=1;exitX=0;exitY=0.5;exitDx=0;exitDy=0;entryX=0;entryY=0.5;entryDx=0;entryDy=0;jumpStyle=arc;" parent="1" source="eUnGqf3GW7OmagP6Ht3n-85" target="ns_d-aMQriX51YMULZ0u-28" edge="1">
          <mxGeometry relative="1" as="geometry">
            <Array as="points">
              <mxPoint x="340" y="610" />
              <mxPoint x="340" y="1420" />
            </Array>
          </mxGeometry>
        </mxCell>
        <mxCell id="ns_d-aMQriX51YMULZ0u-39" value="" style="edgeStyle=orthogonalEdgeStyle;rounded=0;orthogonalLoop=1;jettySize=auto;html=1;" parent="1" source="ns_d-aMQriX51YMULZ0u-28" target="ns_d-aMQriX51YMULZ0u-38" edge="1">
          <mxGeometry relative="1" as="geometry" />
        </mxCell>
        <mxCell id="ns_d-aMQriX51YMULZ0u-28" value="ORDER HISTORY" style="whiteSpace=wrap;html=1;" parent="1" vertex="1">
          <mxGeometry x="365" y="1390" width="120" height="60" as="geometry" />
        </mxCell>
        <mxCell id="ns_d-aMQriX51YMULZ0u-34" value="" style="edgeStyle=orthogonalEdgeStyle;rounded=0;orthogonalLoop=1;jettySize=auto;html=1;" parent="1" source="ns_d-aMQriX51YMULZ0u-30" target="ns_d-aMQriX51YMULZ0u-33" edge="1">
          <mxGeometry relative="1" as="geometry" />
        </mxCell>
        <mxCell id="ns_d-aMQriX51YMULZ0u-30" value="RETURN PRODUCT/&lt;br&gt;REFUND" style="whiteSpace=wrap;html=1;" parent="1" vertex="1">
          <mxGeometry x="365" y="1550" width="120" height="60" as="geometry" />
        </mxCell>
        <mxCell id="ns_d-aMQriX51YMULZ0u-42" style="edgeStyle=orthogonalEdgeStyle;rounded=0;orthogonalLoop=1;jettySize=auto;html=1;exitX=0.5;exitY=1;exitDx=0;exitDy=0;" parent="1" source="ns_d-aMQriX51YMULZ0u-33" target="ns_d-aMQriX51YMULZ0u-41" edge="1">
          <mxGeometry relative="1" as="geometry" />
        </mxCell>
        <mxCell id="ns_d-aMQriX51YMULZ0u-33" value="LOGOUT" style="whiteSpace=wrap;html=1;" parent="1" vertex="1">
          <mxGeometry x="365" y="1640" width="120" height="60" as="geometry" />
        </mxCell>
        <mxCell id="BJIkiRpMkKDZ_c4Hg6pY-1" style="edgeStyle=orthogonalEdgeStyle;rounded=0;orthogonalLoop=1;jettySize=auto;html=1;exitX=0.5;exitY=1;exitDx=0;exitDy=0;entryX=0.5;entryY=0;entryDx=0;entryDy=0;" parent="1" source="ns_d-aMQriX51YMULZ0u-38" target="ns_d-aMQriX51YMULZ0u-30" edge="1">
          <mxGeometry relative="1" as="geometry" />
        </mxCell>
        <mxCell id="ns_d-aMQriX51YMULZ0u-38" value="PRODUCT REVIEW/FEEDBACK" style="whiteSpace=wrap;html=1;" parent="1" vertex="1">
          <mxGeometry x="365" y="1470" width="120" height="60" as="geometry" />
        </mxCell>
        <mxCell id="ns_d-aMQriX51YMULZ0u-41" value="END" style="html=1;dashed=0;whiteSpace=wrap;shape=mxgraph.dfd.start" parent="1" vertex="1">
          <mxGeometry x="385" y="1730" width="80" height="30" as="geometry" />
        </mxCell>
        <mxCell id="ns_d-aMQriX51YMULZ0u-46" value="" style="edgeStyle=orthogonalEdgeStyle;rounded=0;orthogonalLoop=1;jettySize=auto;html=1;" parent="1" source="ns_d-aMQriX51YMULZ0u-43" target="ns_d-aMQriX51YMULZ0u-45" edge="1">
          <mxGeometry relative="1" as="geometry" />
        </mxCell>
        <mxCell id="ns_d-aMQriX51YMULZ0u-43" value="MANAGE ITEM" style="whiteSpace=wrap;html=1;" parent="1" vertex="1">
          <mxGeometry x="660" y="750" width="120" height="60" as="geometry" />
        </mxCell>
        <mxCell id="ns_d-aMQriX51YMULZ0u-48" value="" style="edgeStyle=orthogonalEdgeStyle;rounded=0;orthogonalLoop=1;jettySize=auto;html=1;" parent="1" source="ns_d-aMQriX51YMULZ0u-45" target="ns_d-aMQriX51YMULZ0u-47" edge="1">
          <mxGeometry relative="1" as="geometry" />
        </mxCell>
        <mxCell id="ns_d-aMQriX51YMULZ0u-45" value="MANAGE ORDERS" style="whiteSpace=wrap;html=1;" parent="1" vertex="1">
          <mxGeometry x="660" y="840" width="120" height="60" as="geometry" />
        </mxCell>
        <mxCell id="ns_d-aMQriX51YMULZ0u-47" value="MANAGE PAYMENTS" style="whiteSpace=wrap;html=1;" parent="1" vertex="1">
          <mxGeometry x="660" y="930" width="120" height="60" as="geometry" />
        </mxCell>
        <mxCell id="BJIkiRpMkKDZ_c4Hg6pY-6" style="edgeStyle=orthogonalEdgeStyle;rounded=0;orthogonalLoop=1;jettySize=auto;html=1;exitX=0.5;exitY=1;exitDx=0;exitDy=0;entryX=0.5;entryY=0;entryDx=0;entryDy=0;" parent="1" source="BJIkiRpMkKDZ_c4Hg6pY-4" target="ns_d-aMQriX51YMULZ0u-43" edge="1">
          <mxGeometry relative="1" as="geometry" />
        </mxCell>
        <mxCell id="BJIkiRpMkKDZ_c4Hg6pY-4" value="ADD ITEM" style="whiteSpace=wrap;html=1;" parent="1" vertex="1">
          <mxGeometry x="660" y="670" width="120" height="60" as="geometry" />
        </mxCell>
        <mxCell id="e-X6OiOCz4cqs4gi02x0-2" style="edgeStyle=orthogonalEdgeStyle;rounded=0;orthogonalLoop=1;jettySize=auto;html=1;exitX=0.5;exitY=1;exitDx=0;exitDy=0;entryX=0.5;entryY=0;entryDx=0;entryDy=0;" parent="1" source="sK7dztfSoLU044evjefk-1" target="sK7dztfSoLU044evjefk-2" edge="1">
          <mxGeometry relative="1" as="geometry" />
        </mxCell>
        <mxCell id="sK7dztfSoLU044evjefk-1" value="MANAGE USERS&lt;br&gt;" style="whiteSpace=wrap;html=1;" parent="1" vertex="1">
          <mxGeometry x="80" y="670" width="120" height="60" as="geometry" />
        </mxCell>
        <mxCell id="e-X6OiOCz4cqs4gi02x0-3" style="edgeStyle=orthogonalEdgeStyle;rounded=0;orthogonalLoop=1;jettySize=auto;html=1;exitX=0.5;exitY=1;exitDx=0;exitDy=0;entryX=0.5;entryY=0;entryDx=0;entryDy=0;" parent="1" source="sK7dztfSoLU044evjefk-2" target="anCETZhw7u9t3LAKSbye-1" edge="1">
          <mxGeometry relative="1" as="geometry" />
        </mxCell>
        <mxCell id="sK7dztfSoLU044evjefk-2" value="MANAGE STOCKIST" style="whiteSpace=wrap;html=1;" parent="1" vertex="1">
          <mxGeometry x="80" y="750" width="120" height="60" as="geometry" />
        </mxCell>
        <mxCell id="e-X6OiOCz4cqs4gi02x0-5" style="edgeStyle=orthogonalEdgeStyle;rounded=0;orthogonalLoop=1;jettySize=auto;html=1;exitX=0.5;exitY=1;exitDx=0;exitDy=0;entryX=0.5;entryY=0;entryDx=0;entryDy=0;" parent="1" source="anCETZhw7u9t3LAKSbye-1" target="O2wgGZnaCo3Us0F6WuHX-1" edge="1">
          <mxGeometry relative="1" as="geometry" />
        </mxCell>
        <mxCell id="anCETZhw7u9t3LAKSbye-1" value="MANAGE PRODUCTS" style="whiteSpace=wrap;html=1;" parent="1" vertex="1">
          <mxGeometry x="80" y="840" width="120" height="60" as="geometry" />
        </mxCell>
        <mxCell id="e-X6OiOCz4cqs4gi02x0-6" style="edgeStyle=orthogonalEdgeStyle;rounded=0;orthogonalLoop=1;jettySize=auto;html=1;exitX=0.5;exitY=1;exitDx=0;exitDy=0;entryX=0.5;entryY=0;entryDx=0;entryDy=0;" parent="1" source="O2wgGZnaCo3Us0F6WuHX-1" target="e-X6OiOCz4cqs4gi02x0-1" edge="1">
          <mxGeometry relative="1" as="geometry" />
        </mxCell>
        <mxCell id="O2wgGZnaCo3Us0F6WuHX-1" value="REVIEW ORDERS" style="whiteSpace=wrap;html=1;" parent="1" vertex="1">
          <mxGeometry x="80" y="930" width="120" height="60" as="geometry" />
        </mxCell>
        <mxCell id="e-X6OiOCz4cqs4gi02x0-1" value="REVIEW FEEDBACK" style="whiteSpace=wrap;html=1;" parent="1" vertex="1">
          <mxGeometry x="80" y="1020" width="120" height="60" as="geometry" />
        </mxCell>
      </root>
    </mxGraphModel>
  </diagram>
  <diagram name="Admin Case" id="FkUK_h-arK-3WIJIePmX">
    <mxGraphModel dx="734" dy="490" grid="1" gridSize="10" guides="1" tooltips="1" connect="1" arrows="1" fold="1" page="1" pageScale="1" pageWidth="850" pageHeight="1500" math="0" shadow="0">
      <root>
        <mxCell id="0" />
        <mxCell id="1" parent="0" />
        <mxCell id="QC-oa2HQfWLTARNliC0y-1" value="&lt;p style=&quot;margin:0px;margin-top:4px;text-align:center;&quot;&gt;&lt;b&gt;GIFT HAMPER&lt;/b&gt;&lt;/p&gt;&lt;hr size=&quot;1&quot;&gt;&lt;div style=&quot;height:2px;&quot;&gt;&lt;/div&gt;" style="verticalAlign=top;align=left;overflow=fill;fontSize=12;fontFamily=Helvetica;html=1;" parent="1" vertex="1">
          <mxGeometry x="355" y="110" width="140" height="460" as="geometry" />
        </mxCell>
        <mxCell id="2xpCh2_jSK9rjUgfj4gW-8" style="rounded=0;orthogonalLoop=1;jettySize=auto;html=1;exitX=0.5;exitY=0.5;exitDx=0;exitDy=0;exitPerimeter=0;entryX=0;entryY=0.5;entryDx=0;entryDy=0;" parent="1" source="Kq61B8NgNPR4z9Mc2dlc-1" target="2xpCh2_jSK9rjUgfj4gW-1" edge="1">
          <mxGeometry relative="1" as="geometry" />
        </mxCell>
        <mxCell id="2xpCh2_jSK9rjUgfj4gW-10" style="rounded=0;orthogonalLoop=1;jettySize=auto;html=1;exitX=0.5;exitY=0.5;exitDx=0;exitDy=0;exitPerimeter=0;entryX=0;entryY=0.5;entryDx=0;entryDy=0;" parent="1" source="Kq61B8NgNPR4z9Mc2dlc-1" target="2xpCh2_jSK9rjUgfj4gW-3" edge="1">
          <mxGeometry relative="1" as="geometry" />
        </mxCell>
        <mxCell id="2xpCh2_jSK9rjUgfj4gW-11" style="rounded=0;orthogonalLoop=1;jettySize=auto;html=1;exitX=0.5;exitY=0.5;exitDx=0;exitDy=0;exitPerimeter=0;entryX=0;entryY=0.5;entryDx=0;entryDy=0;" parent="1" source="Kq61B8NgNPR4z9Mc2dlc-1" target="2xpCh2_jSK9rjUgfj4gW-2" edge="1">
          <mxGeometry relative="1" as="geometry" />
        </mxCell>
        <mxCell id="2xpCh2_jSK9rjUgfj4gW-12" style="rounded=0;orthogonalLoop=1;jettySize=auto;html=1;exitX=0.5;exitY=0.5;exitDx=0;exitDy=0;exitPerimeter=0;entryX=0;entryY=0.5;entryDx=0;entryDy=0;" parent="1" source="Kq61B8NgNPR4z9Mc2dlc-1" target="2xpCh2_jSK9rjUgfj4gW-4" edge="1">
          <mxGeometry relative="1" as="geometry" />
        </mxCell>
        <mxCell id="2xpCh2_jSK9rjUgfj4gW-14" style="rounded=0;orthogonalLoop=1;jettySize=auto;html=1;exitX=0.5;exitY=0.5;exitDx=0;exitDy=0;exitPerimeter=0;entryX=0;entryY=0.5;entryDx=0;entryDy=0;" parent="1" source="Kq61B8NgNPR4z9Mc2dlc-1" target="2xpCh2_jSK9rjUgfj4gW-5" edge="1">
          <mxGeometry relative="1" as="geometry" />
        </mxCell>
        <mxCell id="2xpCh2_jSK9rjUgfj4gW-15" style="rounded=0;orthogonalLoop=1;jettySize=auto;html=1;exitX=0.5;exitY=0.5;exitDx=0;exitDy=0;exitPerimeter=0;entryX=0;entryY=0.5;entryDx=0;entryDy=0;" parent="1" source="Kq61B8NgNPR4z9Mc2dlc-1" target="2xpCh2_jSK9rjUgfj4gW-7" edge="1">
          <mxGeometry relative="1" as="geometry" />
        </mxCell>
        <mxCell id="Kq61B8NgNPR4z9Mc2dlc-1" value="ADMIN" style="shape=umlActor;verticalLabelPosition=bottom;verticalAlign=top;html=1;outlineConnect=0;" parent="1" vertex="1">
          <mxGeometry x="220" y="330" width="30" height="60" as="geometry" />
        </mxCell>
        <mxCell id="2xpCh2_jSK9rjUgfj4gW-1" value="LOGIN" style="ellipse;whiteSpace=wrap;html=1;" parent="1" vertex="1">
          <mxGeometry x="365" y="140" width="120" height="60" as="geometry" />
        </mxCell>
        <mxCell id="2xpCh2_jSK9rjUgfj4gW-2" value="MANAGE USERS" style="ellipse;whiteSpace=wrap;html=1;" parent="1" vertex="1">
          <mxGeometry x="365" y="280" width="120" height="60" as="geometry" />
        </mxCell>
        <mxCell id="2xpCh2_jSK9rjUgfj4gW-3" value="MANAGE STOCKIST" style="ellipse;whiteSpace=wrap;html=1;" parent="1" vertex="1">
          <mxGeometry x="365" y="210" width="120" height="60" as="geometry" />
        </mxCell>
        <mxCell id="2xpCh2_jSK9rjUgfj4gW-4" value="REVIEW ORDERS&lt;br&gt;" style="ellipse;whiteSpace=wrap;html=1;" parent="1" vertex="1">
          <mxGeometry x="365" y="350" width="120" height="60" as="geometry" />
        </mxCell>
        <mxCell id="2xpCh2_jSK9rjUgfj4gW-5" value="REVIEW FEEDBACKS" style="ellipse;whiteSpace=wrap;html=1;" parent="1" vertex="1">
          <mxGeometry x="365" y="420" width="120" height="60" as="geometry" />
        </mxCell>
        <mxCell id="2xpCh2_jSK9rjUgfj4gW-7" value="EDIT PROFILE" style="ellipse;whiteSpace=wrap;html=1;" parent="1" vertex="1">
          <mxGeometry x="365" y="490" width="120" height="60" as="geometry" />
        </mxCell>
      </root>
    </mxGraphModel>
  </diagram>
  <diagram name="User Case" id="suXHOlS2ulkbc1YVM9yn">
    <mxGraphModel dx="1335" dy="891" grid="0" gridSize="10" guides="1" tooltips="1" connect="1" arrows="1" fold="1" page="1" pageScale="1" pageWidth="850" pageHeight="1100" background="none" math="0" shadow="0">
      <root>
        <mxCell id="0" />
        <mxCell id="1" parent="0" />
        <mxCell id="pS11Gv5Yu9NYcOLGitTN-1" value="&lt;p style=&quot;margin: 4px 0px 0px; font-size: 14px;&quot;&gt;&lt;b style=&quot;&quot;&gt;&lt;font style=&quot;font-size: 14px;&quot;&gt;GIFT HAMPER&lt;/font&gt;&lt;/b&gt;&lt;/p&gt;&lt;hr style=&quot;font-size: 14px;&quot; size=&quot;1&quot;&gt;&lt;div style=&quot;height: 2px; font-size: 14px;&quot;&gt;&lt;/div&gt;" style="verticalAlign=top;align=center;overflow=fill;fontSize=12;fontFamily=Helvetica;html=1;fillStyle=auto;strokeColor=default;fillColor=default;gradientColor=none;" parent="1" vertex="1">
          <mxGeometry x="393" y="294" width="265" height="793" as="geometry" />
        </mxCell>
        <mxCell id="fLb2cLAJAWwOtoInBqFK-1" value="Order history" style="ellipse;whiteSpace=wrap;html=1;container=0;shadow=1;" parent="1" vertex="1">
          <mxGeometry x="464.69712829589844" y="865.0019348144531" width="129.58677685950414" height="43.81578947368421" as="geometry" />
        </mxCell>
        <mxCell id="fLb2cLAJAWwOtoInBqFK-2" style="rounded=0;orthogonalLoop=1;jettySize=auto;html=1;exitX=1;exitY=0.3333333333333333;exitDx=0;exitDy=0;exitPerimeter=0;entryX=-0.006;entryY=0.31;entryDx=0;entryDy=0;entryPerimeter=0;shadow=1;" parent="1" source="fLb2cLAJAWwOtoInBqFK-4" edge="1">
          <mxGeometry relative="1" as="geometry">
            <mxPoint x="464.69564069259263" y="882.3990400776112" as="targetPoint" />
            <mxPoint x="220.36142581655952" y="516.70009270919" as="sourcePoint" />
          </mxGeometry>
        </mxCell>
        <mxCell id="fLb2cLAJAWwOtoInBqFK-3" value="Product review/feedback" style="ellipse;whiteSpace=wrap;html=1;container=0;shadow=1;" parent="1" vertex="1">
          <mxGeometry x="464.6955167256505" y="927" width="129.59" height="43" as="geometry" />
        </mxCell>
        <mxCell id="fLb2cLAJAWwOtoInBqFK-4" value="User" style="shape=umlActor;verticalLabelPosition=bottom;verticalAlign=top;html=1;outlineConnect=0;container=0;shadow=1;" parent="1" vertex="1">
          <mxGeometry x="197.99712829589845" y="682.0019348144531" width="33.77" height="69.13" as="geometry" />
        </mxCell>
        <mxCell id="fLb2cLAJAWwOtoInBqFK-5" value="&amp;nbsp;Log in" style="ellipse;whiteSpace=wrap;html=1;container=0;shadow=1;" parent="1" vertex="1">
          <mxGeometry x="464.69712829589844" y="339.51772428813734" width="129.58677685950414" height="43.81578947368421" as="geometry" />
        </mxCell>
        <mxCell id="fLb2cLAJAWwOtoInBqFK-6" value=" User dashboard" style="ellipse;container=0;shadow=1;align=center;whiteSpace=wrap;" parent="1" vertex="1">
          <mxGeometry x="464.69712829589844" y="397.9387769197163" width="129.58677685950414" height="43.81578947368421" as="geometry" />
        </mxCell>
        <mxCell id="fLb2cLAJAWwOtoInBqFK-7" value="&amp;nbsp;Search/See catogories" style="ellipse;whiteSpace=wrap;html=1;container=0;shadow=1;" parent="1" vertex="1">
          <mxGeometry x="464.69712829589844" y="456.3598295512952" width="129.58677685950414" height="43.81578947368421" as="geometry" />
        </mxCell>
        <mxCell id="fLb2cLAJAWwOtoInBqFK-8" value="&amp;nbsp;Select Products" style="ellipse;whiteSpace=wrap;html=1;container=0;shadow=1;" parent="1" vertex="1">
          <mxGeometry x="464.69712829589844" y="514.7808821828742" width="129.58677685950414" height="43.81578947368421" as="geometry" />
        </mxCell>
        <mxCell id="fLb2cLAJAWwOtoInBqFK-9" value="&amp;nbsp;Adjust quantity" style="ellipse;whiteSpace=wrap;html=1;container=0;shadow=1;" parent="1" vertex="1">
          <mxGeometry x="464.69712829589844" y="573.2019348144531" width="129.58677685950414" height="43.81578947368421" as="geometry" />
        </mxCell>
        <mxCell id="fLb2cLAJAWwOtoInBqFK-10" value="&amp;nbsp;Add to cart" style="ellipse;whiteSpace=wrap;html=1;container=0;shadow=1;" parent="1" vertex="1">
          <mxGeometry x="464.69712829589844" y="631.6229874460321" width="129.58677685950414" height="43.81578947368421" as="geometry" />
        </mxCell>
        <mxCell id="fLb2cLAJAWwOtoInBqFK-11" value="" style="endArrow=classic;html=1;rounded=0;exitX=1;exitY=0.3333333333333333;exitDx=0;exitDy=0;exitPerimeter=0;entryX=0;entryY=0.5;entryDx=0;entryDy=0;shadow=1;" parent="1" source="fLb2cLAJAWwOtoInBqFK-4" target="fLb2cLAJAWwOtoInBqFK-5" edge="1">
          <mxGeometry width="50" height="50" relative="1" as="geometry">
            <mxPoint x="353.7963018496175" y="500.1756190249795" as="sourcePoint" />
            <mxPoint x="400.0772935851546" y="463.6624611302426" as="targetPoint" />
          </mxGeometry>
        </mxCell>
        <mxCell id="fLb2cLAJAWwOtoInBqFK-12" value="" style="endArrow=classic;html=1;rounded=0;exitX=1;exitY=0.3333333333333333;exitDx=0;exitDy=0;exitPerimeter=0;entryX=0;entryY=0.5;entryDx=0;entryDy=0;shadow=1;" parent="1" source="fLb2cLAJAWwOtoInBqFK-4" target="fLb2cLAJAWwOtoInBqFK-6" edge="1">
          <mxGeometry width="50" height="50" relative="1" as="geometry">
            <mxPoint x="353.7963018496175" y="500.1756190249795" as="sourcePoint" />
            <mxPoint x="400.0772935851546" y="463.6624611302426" as="targetPoint" />
          </mxGeometry>
        </mxCell>
        <mxCell id="fLb2cLAJAWwOtoInBqFK-13" value="" style="endArrow=classic;html=1;rounded=0;exitX=1;exitY=0.3333333333333333;exitDx=0;exitDy=0;exitPerimeter=0;entryX=0;entryY=0.5;entryDx=0;entryDy=0;shadow=1;" parent="1" source="fLb2cLAJAWwOtoInBqFK-4" target="fLb2cLAJAWwOtoInBqFK-7" edge="1">
          <mxGeometry width="50" height="50" relative="1" as="geometry">
            <mxPoint x="353.7963018496175" y="500.1756190249795" as="sourcePoint" />
            <mxPoint x="400.0772935851546" y="463.6624611302426" as="targetPoint" />
          </mxGeometry>
        </mxCell>
        <mxCell id="fLb2cLAJAWwOtoInBqFK-14" value="" style="endArrow=classic;html=1;rounded=0;exitX=1;exitY=0.3333333333333333;exitDx=0;exitDy=0;exitPerimeter=0;entryX=0;entryY=0.5;entryDx=0;entryDy=0;shadow=1;" parent="1" source="fLb2cLAJAWwOtoInBqFK-4" target="fLb2cLAJAWwOtoInBqFK-8" edge="1">
          <mxGeometry width="50" height="50" relative="1" as="geometry">
            <mxPoint x="353.7963018496175" y="500.1756190249795" as="sourcePoint" />
            <mxPoint x="400.0772935851546" y="463.6624611302426" as="targetPoint" />
          </mxGeometry>
        </mxCell>
        <mxCell id="fLb2cLAJAWwOtoInBqFK-15" value="" style="endArrow=classic;html=1;rounded=0;exitX=1;exitY=0.3333333333333333;exitDx=0;exitDy=0;exitPerimeter=0;entryX=0;entryY=0.5;entryDx=0;entryDy=0;shadow=1;" parent="1" source="fLb2cLAJAWwOtoInBqFK-4" target="fLb2cLAJAWwOtoInBqFK-9" edge="1">
          <mxGeometry width="50" height="50" relative="1" as="geometry">
            <mxPoint x="353.7963018496175" y="500.1756190249795" as="sourcePoint" />
            <mxPoint x="400.0772935851546" y="463.6624611302426" as="targetPoint" />
          </mxGeometry>
        </mxCell>
        <mxCell id="fLb2cLAJAWwOtoInBqFK-16" value="" style="endArrow=classic;html=1;rounded=0;exitX=1;exitY=0.3333333333333333;exitDx=0;exitDy=0;exitPerimeter=0;entryX=0;entryY=0.5;entryDx=0;entryDy=0;shadow=1;" parent="1" source="fLb2cLAJAWwOtoInBqFK-4" target="fLb2cLAJAWwOtoInBqFK-10" edge="1">
          <mxGeometry width="50" height="50" relative="1" as="geometry">
            <mxPoint x="353.7963018496175" y="500.1756190249795" as="sourcePoint" />
            <mxPoint x="400.0772935851546" y="463.6624611302426" as="targetPoint" />
          </mxGeometry>
        </mxCell>
        <mxCell id="fLb2cLAJAWwOtoInBqFK-17" value="&amp;nbsp;Select payment method" style="ellipse;whiteSpace=wrap;html=1;container=0;shadow=1;" parent="1" vertex="1">
          <mxGeometry x="464.69712829589844" y="690.0440400776112" width="129.58677685950414" height="43.81578947368421" as="geometry" />
        </mxCell>
        <mxCell id="fLb2cLAJAWwOtoInBqFK-18" value="" style="endArrow=classic;html=1;rounded=0;exitX=1;exitY=0.3333333333333333;exitDx=0;exitDy=0;exitPerimeter=0;entryX=0;entryY=0.5;entryDx=0;entryDy=0;shadow=1;" parent="1" source="fLb2cLAJAWwOtoInBqFK-4" target="fLb2cLAJAWwOtoInBqFK-17" edge="1">
          <mxGeometry width="50" height="50" relative="1" as="geometry">
            <mxPoint x="548.1764671388737" y="711.9519348144531" as="sourcePoint" />
            <mxPoint x="594.4574588744108" y="675.4387769197162" as="targetPoint" />
          </mxGeometry>
        </mxCell>
        <mxCell id="fLb2cLAJAWwOtoInBqFK-19" value="&amp;nbsp;Make payment" style="ellipse;whiteSpace=wrap;html=1;container=0;shadow=1;" parent="1" vertex="1">
          <mxGeometry x="464.69712829589844" y="748.4650927091901" width="129.58677685950414" height="43.81578947368421" as="geometry" />
        </mxCell>
        <mxCell id="fLb2cLAJAWwOtoInBqFK-20" value="" style="endArrow=classic;html=1;rounded=0;exitX=1;exitY=0.3333333333333333;exitDx=0;exitDy=0;exitPerimeter=0;entryX=0;entryY=0.5;entryDx=0;entryDy=0;shadow=1;" parent="1" source="fLb2cLAJAWwOtoInBqFK-4" target="fLb2cLAJAWwOtoInBqFK-19" edge="1">
          <mxGeometry width="50" height="50" relative="1" as="geometry">
            <mxPoint x="548.1764671388737" y="660.8335137618216" as="sourcePoint" />
            <mxPoint x="594.4574588744108" y="624.3203558670848" as="targetPoint" />
          </mxGeometry>
        </mxCell>
        <mxCell id="fLb2cLAJAWwOtoInBqFK-21" value="&amp;nbsp; Place order" style="ellipse;whiteSpace=wrap;html=1;container=0;shadow=1;" parent="1" vertex="1">
          <mxGeometry x="464.69712829589844" y="806.886145340769" width="129.58677685950414" height="43.81578947368421" as="geometry" />
        </mxCell>
        <mxCell id="fLb2cLAJAWwOtoInBqFK-22" value="" style="endArrow=classic;html=1;rounded=0;entryX=0;entryY=0.5;entryDx=0;entryDy=0;shadow=1;" parent="1" target="fLb2cLAJAWwOtoInBqFK-21" edge="1">
          <mxGeometry width="50" height="50" relative="1" as="geometry">
            <mxPoint x="235" y="705" as="sourcePoint" />
            <mxPoint x="492.63927705622905" y="675.4387769197162" as="targetPoint" />
          </mxGeometry>
        </mxCell>
        <mxCell id="fLb2cLAJAWwOtoInBqFK-24" style="edgeStyle=orthogonalEdgeStyle;rounded=0;orthogonalLoop=1;jettySize=auto;html=1;exitX=0.5;exitY=1;exitDx=0;exitDy=0;shadow=1;" parent="1" edge="1">
          <mxGeometry relative="1" as="geometry">
            <mxPoint x="523.46" y="319.26" as="sourcePoint" />
            <mxPoint x="523.4285714285716" y="319.26" as="targetPoint" />
          </mxGeometry>
        </mxCell>
        <mxCell id="fLb2cLAJAWwOtoInBqFK-25" style="rounded=0;orthogonalLoop=1;jettySize=auto;html=1;exitX=1;exitY=0.3333333333333333;exitDx=0;exitDy=0;exitPerimeter=0;shadow=1;entryX=0;entryY=0.5;entryDx=0;entryDy=0;" parent="1" target="fLb2cLAJAWwOtoInBqFK-3" edge="1" source="fLb2cLAJAWwOtoInBqFK-4">
          <mxGeometry relative="1" as="geometry">
            <mxPoint x="468.57712829589843" y="937.7019348144531" as="targetPoint" />
            <mxPoint x="237.57712829589843" y="507.7019348144531" as="sourcePoint" />
          </mxGeometry>
        </mxCell>
        <mxCell id="HK1lREseIIS4Ay93ZOJm-1" value="&amp;nbsp;Return product/refund" style="ellipse;whiteSpace=wrap;html=1;container=0;shadow=1;" parent="1" vertex="1">
          <mxGeometry x="464.6955167256505" y="985" width="129.59" height="43" as="geometry" />
        </mxCell>
        <mxCell id="HK1lREseIIS4Ay93ZOJm-2" value="&amp;nbsp;Log out" style="ellipse;whiteSpace=wrap;html=1;container=0;shadow=1;" parent="1" vertex="1">
          <mxGeometry x="464.6955167256505" y="1043" width="129.59" height="43" as="geometry" />
        </mxCell>
        <mxCell id="HK1lREseIIS4Ay93ZOJm-3" style="rounded=0;orthogonalLoop=1;jettySize=auto;html=1;shadow=1;entryX=0;entryY=0.5;entryDx=0;entryDy=0;exitX=1;exitY=0.3333333333333333;exitDx=0;exitDy=0;exitPerimeter=0;" parent="1" target="HK1lREseIIS4Ay93ZOJm-1" edge="1" source="fLb2cLAJAWwOtoInBqFK-4">
          <mxGeometry relative="1" as="geometry">
            <mxPoint x="467.42287170410157" y="1017.2980651855469" as="targetPoint" />
            <mxPoint x="240" y="514" as="sourcePoint" />
          </mxGeometry>
        </mxCell>
        <mxCell id="HK1lREseIIS4Ay93ZOJm-4" style="rounded=0;orthogonalLoop=1;jettySize=auto;html=1;exitX=1;exitY=0.3333333333333333;exitDx=0;exitDy=0;exitPerimeter=0;shadow=1;entryX=0;entryY=0.5;entryDx=0;entryDy=0;" parent="1" source="fLb2cLAJAWwOtoInBqFK-4" edge="1">
          <mxGeometry relative="1" as="geometry">
            <mxPoint x="464.69287170410155" y="1064.2980651855469" as="targetPoint" />
            <mxPoint x="237.27" y="624" as="sourcePoint" />
          </mxGeometry>
        </mxCell>
      </root>
    </mxGraphModel>
  </diagram>
  <diagram name="Activity Diagram" id="Fg6H88jUvg1mKsH7QpzA">
    <mxGraphModel dx="864" dy="576" grid="1" gridSize="10" guides="1" tooltips="1" connect="1" arrows="0" fold="1" page="1" pageScale="1" pageWidth="850" pageHeight="2000" math="0" shadow="0">
      <root>
        <mxCell id="0" />
        <mxCell id="1" parent="0" />
        <mxCell id="tvX1xfnZyMxr3l3jZ1sE-3" style="edgeStyle=orthogonalEdgeStyle;rounded=0;orthogonalLoop=1;jettySize=auto;html=1;exitX=0.5;exitY=1;exitDx=0;exitDy=0;entryX=0.5;entryY=0;entryDx=0;entryDy=0;" parent="1" source="tvX1xfnZyMxr3l3jZ1sE-1" target="tvX1xfnZyMxr3l3jZ1sE-2" edge="1">
          <mxGeometry relative="1" as="geometry" />
        </mxCell>
        <mxCell id="tvX1xfnZyMxr3l3jZ1sE-1" value="" style="ellipse;fillColor=strokeColor;html=1;" parent="1" vertex="1">
          <mxGeometry x="410" y="30" width="30" height="30" as="geometry" />
        </mxCell>
        <mxCell id="tvX1xfnZyMxr3l3jZ1sE-5" style="edgeStyle=orthogonalEdgeStyle;rounded=0;orthogonalLoop=1;jettySize=auto;html=1;exitX=0.5;exitY=1;exitDx=0;exitDy=0;entryX=0.5;entryY=0;entryDx=0;entryDy=0;" parent="1" source="tvX1xfnZyMxr3l3jZ1sE-2" target="tvX1xfnZyMxr3l3jZ1sE-4" edge="1">
          <mxGeometry relative="1" as="geometry" />
        </mxCell>
        <mxCell id="tvX1xfnZyMxr3l3jZ1sE-2" value="ADMIN LOGIN" style="rounded=1;whiteSpace=wrap;html=1;arcSize=50;" parent="1" vertex="1">
          <mxGeometry x="365" y="90" width="120" height="30" as="geometry" />
        </mxCell>
        <mxCell id="tvX1xfnZyMxr3l3jZ1sE-6" style="edgeStyle=orthogonalEdgeStyle;rounded=0;orthogonalLoop=1;jettySize=auto;html=1;exitX=1;exitY=0.5;exitDx=0;exitDy=0;entryX=1;entryY=0.5;entryDx=0;entryDy=0;" parent="1" source="tvX1xfnZyMxr3l3jZ1sE-4" target="tvX1xfnZyMxr3l3jZ1sE-2" edge="1">
          <mxGeometry relative="1" as="geometry">
            <Array as="points">
              <mxPoint x="500" y="180" />
              <mxPoint x="500" y="105" />
            </Array>
          </mxGeometry>
        </mxCell>
        <mxCell id="tvX1xfnZyMxr3l3jZ1sE-10" style="edgeStyle=orthogonalEdgeStyle;rounded=0;orthogonalLoop=1;jettySize=auto;html=1;exitX=0.5;exitY=1;exitDx=0;exitDy=0;entryX=0.3;entryY=0.501;entryDx=0;entryDy=0;entryPerimeter=0;" parent="1" source="tvX1xfnZyMxr3l3jZ1sE-4" target="tvX1xfnZyMxr3l3jZ1sE-7" edge="1">
          <mxGeometry relative="1" as="geometry" />
        </mxCell>
        <mxCell id="tvX1xfnZyMxr3l3jZ1sE-4" value="IS VERIFIED?" style="rhombus;whiteSpace=wrap;html=1;" parent="1" vertex="1">
          <mxGeometry x="385" y="140" width="80" height="80" as="geometry" />
        </mxCell>
        <mxCell id="tvX1xfnZyMxr3l3jZ1sE-7" value="" style="html=1;points=[];perimeter=orthogonalPerimeter;fillColor=strokeColor;direction=south;" parent="1" vertex="1">
          <mxGeometry x="85" y="267.5" width="680" height="5" as="geometry" />
        </mxCell>
        <mxCell id="tvX1xfnZyMxr3l3jZ1sE-8" value="" style="html=1;points=[];perimeter=orthogonalPerimeter;fillColor=strokeColor;direction=south;" parent="1" vertex="1">
          <mxGeometry x="85" y="430" width="680" height="5" as="geometry" />
        </mxCell>
        <mxCell id="OGx5qn5aU34eorHQytJ7-6" style="edgeStyle=orthogonalEdgeStyle;rounded=0;orthogonalLoop=1;jettySize=auto;html=1;exitX=1.1;exitY=0.911;exitDx=0;exitDy=0;entryX=0.5;entryY=0;entryDx=0;entryDy=0;exitPerimeter=0;" parent="1" source="tvX1xfnZyMxr3l3jZ1sE-7" target="1jib6gzRpleQLcyfuOE3-1" edge="1">
          <mxGeometry relative="1" as="geometry" />
        </mxCell>
        <mxCell id="OGx5qn5aU34eorHQytJ7-7" style="edgeStyle=orthogonalEdgeStyle;rounded=0;orthogonalLoop=1;jettySize=auto;html=1;exitX=0.5;exitY=1;exitDx=0;exitDy=0;entryX=-0.467;entryY=0.911;entryDx=0;entryDy=0;entryPerimeter=0;" parent="1" source="1jib6gzRpleQLcyfuOE3-1" target="tvX1xfnZyMxr3l3jZ1sE-8" edge="1">
          <mxGeometry relative="1" as="geometry" />
        </mxCell>
        <mxCell id="1jib6gzRpleQLcyfuOE3-1" value="MANAGE USER" style="rounded=1;whiteSpace=wrap;html=1;arcSize=50;" parent="1" vertex="1">
          <mxGeometry x="85" y="340" width="120" height="30" as="geometry" />
        </mxCell>
        <mxCell id="OGx5qn5aU34eorHQytJ7-5" style="edgeStyle=orthogonalEdgeStyle;rounded=0;orthogonalLoop=1;jettySize=auto;html=1;exitX=1.367;exitY=0.698;exitDx=0;exitDy=0;entryX=0.5;entryY=0;entryDx=0;entryDy=0;exitPerimeter=0;" parent="1" source="tvX1xfnZyMxr3l3jZ1sE-7" target="1jib6gzRpleQLcyfuOE3-2" edge="1">
          <mxGeometry relative="1" as="geometry">
            <Array as="points">
              <mxPoint x="290" y="270" />
              <mxPoint x="290" y="270" />
            </Array>
          </mxGeometry>
        </mxCell>
        <mxCell id="OGx5qn5aU34eorHQytJ7-8" style="edgeStyle=orthogonalEdgeStyle;rounded=0;orthogonalLoop=1;jettySize=auto;html=1;exitX=0.5;exitY=1;exitDx=0;exitDy=0;entryX=1;entryY=0.7;entryDx=0;entryDy=0;entryPerimeter=0;" parent="1" source="1jib6gzRpleQLcyfuOE3-2" target="tvX1xfnZyMxr3l3jZ1sE-8" edge="1">
          <mxGeometry relative="1" as="geometry" />
        </mxCell>
        <mxCell id="1jib6gzRpleQLcyfuOE3-2" value="MANAGE STOCKIST" style="rounded=1;whiteSpace=wrap;html=1;arcSize=50;" parent="1" vertex="1">
          <mxGeometry x="230" y="370" width="120" height="30" as="geometry" />
        </mxCell>
        <mxCell id="OGx5qn5aU34eorHQytJ7-4" style="edgeStyle=orthogonalEdgeStyle;rounded=0;orthogonalLoop=1;jettySize=auto;html=1;exitX=0.7;exitY=0.499;exitDx=0;exitDy=0;entryX=0.5;entryY=0;entryDx=0;entryDy=0;exitPerimeter=0;" parent="1" source="tvX1xfnZyMxr3l3jZ1sE-7" target="1jib6gzRpleQLcyfuOE3-3" edge="1">
          <mxGeometry relative="1" as="geometry" />
        </mxCell>
        <mxCell id="OGx5qn5aU34eorHQytJ7-9" style="edgeStyle=orthogonalEdgeStyle;rounded=0;orthogonalLoop=1;jettySize=auto;html=1;exitX=0.5;exitY=1;exitDx=0;exitDy=0;entryX=0.467;entryY=0.5;entryDx=0;entryDy=0;entryPerimeter=0;" parent="1" source="1jib6gzRpleQLcyfuOE3-3" target="tvX1xfnZyMxr3l3jZ1sE-8" edge="1">
          <mxGeometry relative="1" as="geometry" />
        </mxCell>
        <mxCell id="1jib6gzRpleQLcyfuOE3-3" value="MANAGE PRODUCT" style="rounded=1;whiteSpace=wrap;html=1;arcSize=50;" parent="1" vertex="1">
          <mxGeometry x="365" y="330" width="120" height="30" as="geometry" />
        </mxCell>
        <mxCell id="OGx5qn5aU34eorHQytJ7-2" style="edgeStyle=orthogonalEdgeStyle;rounded=0;orthogonalLoop=1;jettySize=auto;html=1;exitX=0.967;exitY=0.301;exitDx=0;exitDy=0;entryX=0.5;entryY=0;entryDx=0;entryDy=0;exitPerimeter=0;" parent="1" source="tvX1xfnZyMxr3l3jZ1sE-7" target="1jib6gzRpleQLcyfuOE3-4" edge="1">
          <mxGeometry relative="1" as="geometry" />
        </mxCell>
        <mxCell id="OGx5qn5aU34eorHQytJ7-10" style="edgeStyle=orthogonalEdgeStyle;rounded=0;orthogonalLoop=1;jettySize=auto;html=1;exitX=0.5;exitY=1;exitDx=0;exitDy=0;entryX=0.467;entryY=0.301;entryDx=0;entryDy=0;entryPerimeter=0;" parent="1" source="1jib6gzRpleQLcyfuOE3-4" target="tvX1xfnZyMxr3l3jZ1sE-8" edge="1">
          <mxGeometry relative="1" as="geometry" />
        </mxCell>
        <mxCell id="1jib6gzRpleQLcyfuOE3-4" value="REVIEW ORDER" style="rounded=1;whiteSpace=wrap;html=1;arcSize=50;" parent="1" vertex="1">
          <mxGeometry x="500" y="370" width="120" height="30" as="geometry" />
        </mxCell>
        <mxCell id="OGx5qn5aU34eorHQytJ7-1" style="edgeStyle=orthogonalEdgeStyle;rounded=0;orthogonalLoop=1;jettySize=auto;html=1;exitX=0.967;exitY=0.109;exitDx=0;exitDy=0;entryX=0.5;entryY=0;entryDx=0;entryDy=0;exitPerimeter=0;" parent="1" source="tvX1xfnZyMxr3l3jZ1sE-7" target="1jib6gzRpleQLcyfuOE3-5" edge="1">
          <mxGeometry relative="1" as="geometry" />
        </mxCell>
        <mxCell id="OGx5qn5aU34eorHQytJ7-11" style="edgeStyle=orthogonalEdgeStyle;rounded=0;orthogonalLoop=1;jettySize=auto;html=1;exitX=0.5;exitY=1;exitDx=0;exitDy=0;entryX=0.067;entryY=0.111;entryDx=0;entryDy=0;entryPerimeter=0;" parent="1" source="1jib6gzRpleQLcyfuOE3-5" target="tvX1xfnZyMxr3l3jZ1sE-8" edge="1">
          <mxGeometry relative="1" as="geometry" />
        </mxCell>
        <mxCell id="1jib6gzRpleQLcyfuOE3-5" value="REVIEW FEEDBACK" style="rounded=1;whiteSpace=wrap;html=1;arcSize=50;" parent="1" vertex="1">
          <mxGeometry x="630" y="340" width="120" height="30" as="geometry" />
        </mxCell>
        <mxCell id="OGx5qn5aU34eorHQytJ7-12" value="YES" style="text;html=1;align=center;verticalAlign=middle;resizable=0;points=[];autosize=1;strokeColor=none;fillColor=none;" parent="1" vertex="1">
          <mxGeometry x="425" y="218" width="50" height="30" as="geometry" />
        </mxCell>
        <mxCell id="OGx5qn5aU34eorHQytJ7-13" value="NO" style="text;html=1;align=center;verticalAlign=middle;resizable=0;points=[];autosize=1;strokeColor=none;fillColor=none;" parent="1" vertex="1">
          <mxGeometry x="450" y="158" width="40" height="30" as="geometry" />
        </mxCell>
        <mxCell id="OGx5qn5aU34eorHQytJ7-15" style="edgeStyle=orthogonalEdgeStyle;rounded=0;orthogonalLoop=1;jettySize=auto;html=1;exitX=1;exitY=0.5;exitDx=0;exitDy=0;entryX=0.5;entryY=0;entryDx=0;entryDy=0;exitPerimeter=0;" parent="1" source="tvX1xfnZyMxr3l3jZ1sE-8" target="OGx5qn5aU34eorHQytJ7-14" edge="1">
          <mxGeometry relative="1" as="geometry" />
        </mxCell>
        <mxCell id="OGx5qn5aU34eorHQytJ7-14" value="" style="ellipse;html=1;shape=endState;fillColor=strokeColor;" parent="1" vertex="1">
          <mxGeometry x="410" y="560" width="30" height="30" as="geometry" />
        </mxCell>
      </root>
    </mxGraphModel>
  </diagram>
  <diagram name="Database diagram" id="5iN2SZwCoFm_A6-41Eaj">
    <mxGraphModel dx="734" dy="490" grid="1" gridSize="10" guides="1" tooltips="1" connect="1" arrows="1" fold="1" page="1" pageScale="1" pageWidth="100" pageHeight="2000" math="0" shadow="0">
      <root>
        <mxCell id="0" />
        <mxCell id="1" parent="0" />
        <mxCell id="OnoSIkC3Qo6lRudsDJyA-1" style="rounded=0;orthogonalLoop=1;jettySize=auto;html=1;exitX=1;exitY=0.25;exitDx=0;exitDy=0;endSize=8;startSize=2;targetPerimeterSpacing=9;jumpSize=12;entryX=0;entryY=0.25;entryDx=0;entryDy=0;" parent="1" source="txuCSJ8nUjsEM-nVazq2-1" target="txuCSJ8nUjsEM-nVazq2-2" edge="1">
          <mxGeometry relative="1" as="geometry">
            <mxPoint x="280" y="60" as="targetPoint" />
          </mxGeometry>
        </mxCell>
        <mxCell id="txuCSJ8nUjsEM-nVazq2-1" value="&lt;p style=&quot;margin:0px;margin-top:4px;text-align:center;&quot;&gt;&lt;b&gt;ADMIN&lt;/b&gt;&lt;/p&gt;&lt;hr size=&quot;1&quot;&gt;&lt;p style=&quot;margin:0px;margin-left:4px;&quot;&gt;login_id integer&lt;/p&gt;&lt;p style=&quot;margin:0px;margin-left:4px;&quot;&gt;name varchar&lt;/p&gt;&lt;p style=&quot;margin:0px;margin-left:4px;&quot;&gt;email varchar&lt;/p&gt;&lt;p style=&quot;margin:0px;margin-left:4px;&quot;&gt;password varchar&lt;/p&gt;&lt;p style=&quot;margin:0px;margin-left:4px;&quot;&gt;phone biginteger&lt;/p&gt;&lt;p style=&quot;margin:0px;margin-left:4px;&quot;&gt;address varchar&lt;/p&gt;&lt;hr size=&quot;1&quot;&gt;&lt;p style=&quot;margin:0px;margin-left:4px;&quot;&gt;manage users&lt;/p&gt;&lt;p style=&quot;margin:0px;margin-left:4px;&quot;&gt;manage products&lt;/p&gt;&lt;p style=&quot;margin:0px;margin-left:4px;&quot;&gt;manage review&lt;/p&gt;&lt;p style=&quot;margin:0px;margin-left:4px;&quot;&gt;manage feedback&lt;/p&gt;" style="verticalAlign=top;align=left;overflow=fill;fontSize=12;fontFamily=Helvetica;html=1;whiteSpace=wrap;" parent="1" vertex="1">
          <mxGeometry x="10" y="10" width="160" height="210" as="geometry" />
        </mxCell>
        <mxCell id="OnoSIkC3Qo6lRudsDJyA-5" style="edgeStyle=orthogonalEdgeStyle;rounded=0;orthogonalLoop=1;jettySize=auto;html=1;exitX=1;exitY=0.75;exitDx=0;exitDy=0;entryX=0;entryY=0.25;entryDx=0;entryDy=0;" parent="1" source="txuCSJ8nUjsEM-nVazq2-2" target="txuCSJ8nUjsEM-nVazq2-3" edge="1">
          <mxGeometry relative="1" as="geometry" />
        </mxCell>
        <mxCell id="txuCSJ8nUjsEM-nVazq2-2" value="&lt;p style=&quot;margin:0px;margin-top:4px;text-align:center;&quot;&gt;&lt;b&gt;USERS&lt;/b&gt;&lt;/p&gt;&lt;hr size=&quot;1&quot;&gt;&lt;p style=&quot;margin:0px;margin-left:4px;&quot;&gt;login_id integer&lt;/p&gt;&lt;p style=&quot;margin:0px;margin-left:4px;&quot;&gt;name varchar&lt;/p&gt;&lt;p style=&quot;margin:0px;margin-left:4px;&quot;&gt;email varchar&lt;/p&gt;&lt;p style=&quot;margin:0px;margin-left:4px;&quot;&gt;password varchar&lt;/p&gt;&lt;p style=&quot;margin:0px;margin-left:4px;&quot;&gt;phone biginteger&lt;/p&gt;&lt;p style=&quot;margin:0px;margin-left:4px;&quot;&gt;user_address varchar&lt;/p&gt;&lt;hr size=&quot;1&quot;&gt;&lt;p style=&quot;margin:0px;margin-left:4px;&quot;&gt;manager profile&lt;/p&gt;&lt;p style=&quot;margin:0px;margin-left:4px;&quot;&gt;manage order&lt;/p&gt;&lt;p style=&quot;margin:0px;margin-left:4px;&quot;&gt;view cart&lt;/p&gt;&lt;p style=&quot;margin:0px;margin-left:4px;&quot;&gt;return order&lt;/p&gt;&lt;p style=&quot;margin:0px;margin-left:4px;&quot;&gt;manage payment&lt;/p&gt;" style="verticalAlign=top;align=left;overflow=fill;fontSize=12;fontFamily=Helvetica;html=1;whiteSpace=wrap;" parent="1" vertex="1">
          <mxGeometry x="270" y="10" width="160" height="210" as="geometry" />
        </mxCell>
        <mxCell id="txuCSJ8nUjsEM-nVazq2-3" value="&lt;p style=&quot;margin:0px;margin-top:4px;text-align:center;&quot;&gt;&lt;b&gt;CATEGORY&lt;/b&gt;&lt;/p&gt;&lt;hr size=&quot;1&quot;&gt;&lt;p style=&quot;margin:0px;margin-left:4px;&quot;&gt;category_id integer&lt;/p&gt;&lt;p style=&quot;margin:0px;margin-left:4px;&quot;&gt;category_name varchar&lt;/p&gt;&lt;hr size=&quot;1&quot;&gt;&lt;p style=&quot;margin:0px;margin-left:4px;&quot;&gt;add product&lt;/p&gt;&lt;p style=&quot;margin:0px;margin-left:4px;&quot;&gt;&lt;br&gt;&lt;/p&gt;" style="verticalAlign=top;align=left;overflow=fill;fontSize=12;fontFamily=Helvetica;html=1;whiteSpace=wrap;" parent="1" vertex="1">
          <mxGeometry x="520" y="10" width="160" height="210" as="geometry" />
        </mxCell>
        <mxCell id="OnoSIkC3Qo6lRudsDJyA-6" value="&lt;p style=&quot;margin:0px;margin-top:4px;text-align:center;&quot;&gt;&lt;b&gt;PRODUCT&lt;/b&gt;&lt;/p&gt;&lt;hr size=&quot;1&quot;&gt;&lt;p style=&quot;margin:0px;margin-left:4px;&quot;&gt;category_id integer&lt;/p&gt;&lt;p style=&quot;margin:0px;margin-left:4px;&quot;&gt;product_name varchar&lt;/p&gt;&lt;p style=&quot;margin:0px;margin-left:4px;&quot;&gt;product_qty integer&lt;/p&gt;&lt;p style=&quot;margin:0px;margin-left:4px;&quot;&gt;product_id integer&lt;/p&gt;&lt;p style=&quot;margin:0px;margin-left:4px;&quot;&gt;product_image varchar&lt;/p&gt;&lt;p style=&quot;margin:0px;margin-left:4px;&quot;&gt;product_price integer&lt;/p&gt;&lt;p style=&quot;margin:0px;margin-left:4px;&quot;&gt;product_desc varchar&lt;/p&gt;&lt;hr size=&quot;1&quot;&gt;&lt;p style=&quot;margin:0px;margin-left:4px;&quot;&gt;manage users&lt;/p&gt;&lt;p style=&quot;margin:0px;margin-left:4px;&quot;&gt;manage products&lt;/p&gt;&lt;p style=&quot;margin:0px;margin-left:4px;&quot;&gt;manage review&lt;/p&gt;&lt;p style=&quot;margin:0px;margin-left:4px;&quot;&gt;manage feedback&lt;/p&gt;" style="verticalAlign=top;align=left;overflow=fill;fontSize=12;fontFamily=Helvetica;html=1;whiteSpace=wrap;" parent="1" vertex="1">
          <mxGeometry x="10" y="240" width="160" height="210" as="geometry" />
        </mxCell>
      </root>
    </mxGraphModel>
  </diagram>
</mxfile>
